<?xml version="1.0" encoding="UTF-8" standalone="no"?>
<!-- Created with Inkscape (http://www.inkscape.org/) -->

<svg
   xmlns:dc="http://purl.org/dc/elements/1.1/"
   xmlns:cc="http://creativecommons.org/ns#"
   xmlns:rdf="http://www.w3.org/1999/02/22-rdf-syntax-ns#"
   xmlns:svg="http://www.w3.org/2000/svg"
   xmlns="http://www.w3.org/2000/svg"
   xmlns:sodipodi="http://sodipodi.sourceforge.net/DTD/sodipodi-0.dtd"
   xmlns:inkscape="http://www.inkscape.org/namespaces/inkscape"
   width="396.89499"
   height="129.864"
   viewBox="0 0 396.89497 129.864"
   id="svg4414"
   version="1.1"
   inkscape:version="0.91 r13725"
   sodipodi:docname="logo.svg">
  <defs
     id="defs4416" />
  <sodipodi:namedview
     id="base"
     pagecolor="#ffffff"
     bordercolor="#666666"
     borderopacity="1.0"
     inkscape:pageopacity="0.0"
     inkscape:pageshadow="2"
     inkscape:zoom="1.979899"
     inkscape:cx="133.06765"
     inkscape:cy="11.615771"
     inkscape:document-units="px"
     inkscape:current-layer="g4998"
     showgrid="false"
     fit-margin-top="24.932"
     fit-margin-left="24.932"
     fit-margin-right="24.932"
     fit-margin-bottom="24.932"
     units="px"
     inkscape:window-width="2074"
     inkscape:window-height="1094"
     inkscape:window-x="166"
     inkscape:window-y="104"
     inkscape:window-maximized="0" />
  <metadata
     id="metadata4419">
    <rdf:RDF>
      <cc:Work
         rdf:about="">
        <dc:format>image/svg+xml</dc:format>
        <dc:type
           rdf:resource="http://purl.org/dc/dcmitype/StillImage" />
        <dc:title></dc:title>
      </cc:Work>
    </rdf:RDF>
  </metadata>
  <g
     inkscape:label="Ebene 1"
     inkscape:groupmode="layer"
     id="layer1"
     transform="translate(-103.56011,-146.36899)">
    <g
       id="g4998"
       transform="translate(23.447505,0)">
      <path
         inkscape:connector-curvature="0"
         d="m 105.30737,251.30099 0,-49.64456 q 0,-1.96827 -0.0438,-4.19903 -0.0438,-2.27446 -0.0876,-4.24273 -0.0876,-2.27447 -0.13138,-4.89886 l 7.74193,0 0.5686,6.69219 q 1.44342,-2.14325 3.14928,-3.58666 1.70582,-1.44342 3.49915,-2.31819 1.83709,-0.8748 3.63042,-1.22472 1.79333,-0.34995 3.45544,-0.34995 3.5429,0 6.73589,1.44341 3.19303,1.44342 5.59869,4.33021 2.40569,2.88683 3.80535,7.26079 1.44341,4.374 1.44341,10.23509 0,5.90488 -1.48712,10.23513 -1.44342,4.3302 -3.98034,7.21703 -2.53687,2.84308 -5.90484,4.28649 -3.32421,1.39967 -7.0421,1.39967 -4.11155,0 -7.34826,-1.5746 -3.19303,-1.6184 -5.64244,-4.11156 l 0.21858,8.17932 0,14.87149 -8.17932,0 z m 19.77035,-23.70692 q 3.63042,0 5.90489,-1.5746 2.27442,-1.57464 3.5429,-4.02409 1.26844,-2.4494 1.70582,-5.46746 0.48114,-3.06176 0.48114,-5.99231 0,-3.45544 -0.56861,-6.47349 -0.5686,-3.06177 -1.88079,-5.29252 -1.3122,-2.23072 -3.45544,-3.49916 -2.14325,-1.31219 -5.29252,-1.31219 -2.40566,0 -4.59266,0.91852 -2.187,0.91853 -3.8491,2.31823 -1.61836,1.39966 -2.62439,3.10552 -0.96228,1.66207 -0.96228,3.23671 l 0,13.69052 q 0,1.74962 0.69988,3.58667 0.69983,1.83708 2.14324,3.36796 1.44338,1.48717 3.58662,2.44945 2.187,0.96224 5.1613,0.96224 z"
         id="path4264"
         style="font-style:normal;font-variant:normal;font-weight:normal;font-stretch:normal;font-size:medium;line-height:125%;font-family:Shanti;-inkscape-font-specification:Shanti;letter-spacing:0px;word-spacing:0px;fill:#1d2d44;fill-opacity:1;stroke:none;stroke-width:1px;stroke-linecap:butt;stroke-linejoin:miter;stroke-opacity:1" />
      <path
         inkscape:connector-curvature="0"
         d="m 186.09463,233.10528 q -0.17478,-0.74358 -0.34995,-1.83708 -0.13139,-0.91853 -0.30616,-2.27443 -0.13139,-1.3997 -0.26237,-3.23675 -1.66211,3.98029 -5.20505,6.07982 -3.49916,2.0995 -8.00434,2.0995 -8.26682,0 -12.33462,-4.33021 -4.0678,-4.374 -4.0678,-12.55331 l 0,-28.73701 8.1356,0 0,28.78076 q 0,2.14321 0.39375,4.06776 0.43738,1.88084 1.44341,3.32421 1.00599,1.39971 2.66814,2.23076 1.66211,0.83105 4.19898,0.83105 3.45544,0 5.6862,-1.13725 2.27442,-1.13722 3.58666,-3.10552 1.3559,-2.01203 1.8808,-4.72388 0.52485,-2.71185 0.52485,-5.86113 l 0,-24.40676 8.1356,0 0,28.34334 q 0,4.11155 0.0876,7.17332 0.13138,3.01805 0.26236,5.11754 0.17478,2.4057 0.39375,4.15527 l -6.86712,0 z"
         id="path4266"
         style="font-style:normal;font-variant:normal;font-weight:normal;font-stretch:normal;font-size:medium;line-height:125%;font-family:Shanti;-inkscape-font-specification:Shanti;letter-spacing:0px;word-spacing:0px;fill:#1d2d44;fill-opacity:1;stroke:none;stroke-width:1px;stroke-linecap:butt;stroke-linejoin:miter;stroke-opacity:1" />
      <path
         inkscape:connector-curvature="0"
         d="m 206.2149,171.30107 8.26682,0 -0.0876,15.57133 -0.13138,7.26079 q 0.91852,-1.22468 2.09949,-2.40565 1.22472,-1.18101 2.71185,-2.09953 1.53089,-0.91853 3.36797,-1.48713 1.83709,-0.56865 4.0678,-0.56865 5.11755,0 8.70421,1.83708 3.63037,1.79334 5.90484,4.89886 2.31822,3.10552 3.36797,7.21703 1.0935,4.11156 1.0935,8.74796 0,5.03008 -1.0935,9.36029 -1.04975,4.33024 -3.41168,7.52323 -2.31823,3.14928 -5.99236,4.98633 -3.67413,1.79333 -8.87918,1.79333 -1.44342,0 -3.01801,-0.39375 -1.53093,-0.34996 -3.14928,-1.13722 -1.57464,-0.83105 -3.14928,-2.14324 -1.53088,-1.3122 -2.88679,-3.14928 -0.0876,0.56861 -0.21857,1.57464 -0.13138,0.96227 -0.21857,1.96827 -0.17478,1.13725 -0.26237,2.44944 l -7.08585,0 0,-61.80421 z m 8.17931,46.45158 q 0,1.48713 0.69983,3.19299 0.69987,1.70586 2.14325,3.19299 1.44341,1.44341 3.71788,2.44945 2.27447,0.96227 5.42375,0.96227 3.06176,0 5.20501,-1.3997 2.14325,-1.39966 3.49919,-3.7616 1.35591,-2.36193 1.92452,-5.4237 0.61236,-3.06181 0.61236,-6.42974 0,-3.06181 -0.52486,-6.03611 -0.48113,-3.01801 -1.74961,-5.33623 -1.26844,-2.31823 -3.54291,-3.7616 -2.23071,-1.44342 -5.68615,-1.44342 -2.31822,0 -4.41772,0.91852 -2.09953,0.91853 -3.76159,2.36194 -1.6184,1.3997 -2.58067,3.06181 -0.96228,1.66211 -0.96228,3.14924 l 0,14.30289 z"
         id="path4268"
         style="font-style:normal;font-variant:normal;font-weight:normal;font-stretch:normal;font-size:medium;line-height:125%;font-family:Shanti;-inkscape-font-specification:Shanti;letter-spacing:0px;word-spacing:0px;fill:#1d2d44;fill-opacity:1;stroke:none;stroke-width:1px;stroke-linecap:butt;stroke-linejoin:miter;stroke-opacity:1" />
      <path
         inkscape:connector-curvature="0"
         d="m 271.64952,233.93634 q -5.1613,0 -7.96066,-1.13722 -2.75557,-1.18097 -4.06776,-3.58666 -1.26848,-2.44945 -1.48717,-6.21104 -0.21857,-3.80536 -0.21857,-9.05413 l 0,-36.08526 -6.64843,0 0,-6.5172 14.91521,0 0,44.87693 q 0,3.49919 0.0876,5.6424 0.13138,2.14329 0.74358,3.32426 0.65608,1.18096 2.01203,1.57459 1.39966,0.39375 3.93657,0.39375 l -1.31219,6.7797 0,0 z"
         id="path4270"
         style="font-style:normal;font-variant:normal;font-weight:normal;font-stretch:normal;font-size:medium;line-height:125%;font-family:Shanti;-inkscape-font-specification:Shanti;letter-spacing:0px;word-spacing:0px;fill:#1d2d44;fill-opacity:1;stroke:none;stroke-width:1px;stroke-linecap:butt;stroke-linejoin:miter;stroke-opacity:1" />
      <path
         inkscape:connector-curvature="0"
         d="m 291.90101,233.10528 -8.1356,0 0,-38.27226 -6.64843,0 0,-6.51721 14.78403,0 0,44.78947 z m 0.7873,-60.22957 0,7.52324 -9.71024,0 0,-7.52324 9.71024,0 z"
         id="path4272"
         style="font-style:normal;font-variant:normal;font-weight:normal;font-stretch:normal;font-size:medium;line-height:125%;font-family:Shanti;-inkscape-font-specification:Shanti;letter-spacing:0px;word-spacing:0px;fill:#1d2d44;fill-opacity:1;stroke:none;stroke-width:1px;stroke-linecap:butt;stroke-linejoin:miter;stroke-opacity:1" />
      <path
         inkscape:connector-curvature="0"
         d="m 342.50785,233.10528 -9.2291,0 -12.07213,-20.12026 -7.12961,0 0,20.12026 -8.31053,0 0,-61.76045 8.31053,0 0,34.86053 4.11156,0 q 0.8748,0 1.83704,0 0.96228,-0.0438 1.92455,-0.0438 1.79333,-1.48717 3.32422,-3.23675 1.53092,-1.79333 2.84311,-3.89282 1.3122,-2.14324 2.40566,-4.68016 1.13725,-2.53691 2.14324,-6.03607 l 8.57299,0 q -0.7873,3.45544 -2.14325,6.56096 -1.31219,3.06177 -3.06177,5.90485 -1.70586,2.84308 -3.7616,5.29252 -2.05577,2.44941 -4.28649,4.15527 l 14.52158,22.87587 z"
         id="path4274"
         style="font-style:normal;font-variant:normal;font-weight:normal;font-stretch:normal;font-size:medium;line-height:125%;font-family:Shanti;-inkscape-font-specification:Shanti;letter-spacing:0px;word-spacing:0px;fill:#1d2d44;fill-opacity:1;stroke:none;stroke-width:1px;stroke-linecap:butt;stroke-linejoin:miter;stroke-opacity:1" />
      <path
         inkscape:connector-curvature="0"
         d="m 351.08084,192.90851 q 1.74957,-1.18097 3.76159,-2.14329 2.05578,-0.96224 4.19903,-1.66207 2.187,-0.74358 4.37396,-1.13725 2.187,-0.39375 4.24277,-0.39375 3.14924,0 5.9486,0.83105 2.84308,0.7873 4.94257,2.53692 2.14325,1.70582 3.36797,4.41771 1.22472,2.71186 1.22472,6.56092 l 0,18.02078 q 0,2.9743 0.13138,5.37999 0.13099,2.40569 0.34996,4.15527 0.21857,2.05577 0.52485,3.63041 l -7.39201,0 q -0.13138,-0.74358 -0.26237,-2.7556 -0.0876,-2.01203 -0.17478,-4.50519 -1.44341,2.44941 -3.14927,4.02405 -1.70583,1.53088 -3.54291,2.4494 -1.83705,0.91857 -3.7616,1.26848 -1.92455,0.34996 -3.80535,0.34996 -3.2805,0 -5.9486,-0.87481 -2.66814,-0.91852 -4.54894,-2.62439 -1.83708,-1.70586 -2.84307,-4.11151 -1.00604,-2.40569 -1.00604,-5.42375 0,-1.44341 0.30617,-3.06176 0.34995,-1.6184 1.0935,-3.193 0.74358,-1.57463 1.9683,-3.01805 1.22469,-1.44341 3.01802,-2.58063 1.92455,-1.22472 4.24277,-1.88084 2.31819,-0.69983 4.76763,-1.00599 2.49316,-0.34995 4.98633,-0.39375 2.49316,-0.0876 4.81138,-0.0876 l 2.36194,0 0,-3.23674 q 0,-2.40569 -0.61236,-4.02405 -0.61237,-1.6621 -1.70587,-2.62438 -1.0935,-1.00603 -2.53691,-1.44342 -1.44338,-0.43738 -3.06177,-0.43738 -1.79333,0 -3.71788,0.43738 -1.92452,0.39375 -3.7616,1.04975 -1.83709,0.65611 -3.49919,1.44341 -1.61836,0.7873 -2.88679,1.57464 l -2.4057,-5.51121 z m 21.51992,31.01143 q 0.83105,-0.96228 1.31219,-2.14325 0.5249,-1.18097 0.7873,-2.6681 0.30616,-1.48717 0.39375,-3.32425 0.13138,-1.83705 0.13138,-4.15527 l -1.26843,0 q -3.01806,0 -6.2548,0.21857 -3.19299,0.21858 -5.90485,1.13726 -2.66814,0.91852 -4.41771,2.84307 -1.70586,1.8808 -1.70586,5.20502 0,1.22472 0.39375,2.40569 0.39375,1.13721 1.22472,2.05578 0.87477,0.91852 2.14324,1.48713 1.3122,0.5686 3.14924,0.5686 3.14928,0 5.81738,-0.91852 2.66814,-0.91852 4.19902,-2.71185 z"
         id="path4276"
         style="font-style:normal;font-variant:normal;font-weight:normal;font-stretch:normal;font-size:medium;line-height:125%;font-family:Shanti;-inkscape-font-specification:Shanti;letter-spacing:0px;word-spacing:0px;fill:#1d2d44;fill-opacity:1;stroke:none;stroke-width:1px;stroke-linecap:butt;stroke-linejoin:miter;stroke-opacity:1" />
      <path
         inkscape:connector-curvature="0"
         d="m 412.53513,227.55035 q 1.22472,0 2.6681,-0.17517 1.48717,-0.17478 2.4932,-0.39375 l 0,6.03606 q -1.35595,0.34996 -3.32425,0.61237 -1.92452,0.30616 -3.89283,0.30616 -2.6681,0 -4.8551,-0.56861 -2.14324,-0.52489 -3.67413,-1.8808 -1.48716,-1.35595 -2.31822,-3.63041 -0.7873,-2.31823 -0.7873,-5.77367 l 0,-27.29354 -6.86716,0 0,-6.51725 7.08585,0 1.44342,-10.67247 6.60467,-1.44342 0,12.11589 10.41007,0 0,6.51725 -10.41007,0 0,26.33127 q 0,1.26848 0.17478,2.44944 0.21858,1.18097 0.7873,2.05578 0.61236,0.87477 1.66211,1.39966 1.04978,0.52489 2.79936,0.52489 z"
         id="path4278"
         style="font-style:normal;font-variant:normal;font-weight:normal;font-stretch:normal;font-size:medium;line-height:125%;font-family:Shanti;-inkscape-font-specification:Shanti;letter-spacing:0px;word-spacing:0px;fill:#1d2d44;fill-opacity:1;stroke:none;stroke-width:1px;stroke-linecap:butt;stroke-linejoin:miter;stroke-opacity:1" />
      <path
         inkscape:connector-curvature="0"
         d="m 427.40663,199.81938 q 0,-0.56864 -0.0438,-2.01206 0,-1.44342 -0.0438,-3.14924 0,-1.70586 -0.0876,-3.5429 -0.0438,-1.88084 -0.0876,-2.84312 l 7.65446,0 0.39375,7.78568 q 1.44342,-2.31818 3.14924,-3.93657 1.70586,-1.61836 3.41172,-2.62439 1.74958,-1.00599 3.41169,-1.44341 1.6621,-0.48114 3.06176,-0.48114 0.87481,0 1.8808,0.0876 1.04979,0.0438 1.96831,0.17478 l -0.52489,8.04813 q -1.18097,-0.21858 -2.23072,-0.34996 -1.04974,-0.13138 -2.14324,-0.13138 -3.06177,0 -5.24877,1.04974 -2.187,1.00604 -3.58666,2.84308 -1.35591,1.83709 -2.01202,4.37396 -0.65608,2.53692 -0.65608,5.59868 l 0,23.83815 -8.26682,0 0,-33.2859 z"
         id="path4280"
         style="font-style:normal;font-variant:normal;font-weight:normal;font-stretch:normal;font-size:medium;line-height:125%;font-family:Shanti;-inkscape-font-specification:Shanti;letter-spacing:0px;word-spacing:0px;fill:#1d2d44;fill-opacity:1;stroke:none;stroke-width:1px;stroke-linecap:butt;stroke-linejoin:miter;stroke-opacity:1" />
      <path
         d="m 123.73033,251.30099 328.34526,0 0,-8.27359 -328.34526,0 z"
         id="path4284"
         inkscape:connector-curvature="0"
         sodipodi:nodetypes="ccccc"
         style="font-style:normal;font-variant:normal;font-weight:normal;font-stretch:normal;font-size:medium;line-height:125%;font-family:Shanti;-inkscape-font-specification:Shanti;letter-spacing:0px;word-spacing:0px;fill:#1d2d44;fill-opacity:1;stroke:none;stroke-width:1px;stroke-linecap:butt;stroke-linejoin:miter;stroke-opacity:1" />
    </g>
  </g>
</svg>
