<?xml version="1.0" encoding="UTF-8" standalone="no"?>
<!-- Created with Inkscape (http://www.inkscape.org/) -->

<svg
   xmlns:dc="http://purl.org/dc/elements/1.1/"
   xmlns:cc="http://creativecommons.org/ns#"
   xmlns:rdf="http://www.w3.org/1999/02/22-rdf-syntax-ns#"
   xmlns:svg="http://www.w3.org/2000/svg"
   xmlns="http://www.w3.org/2000/svg"
   xmlns:sodipodi="http://sodipodi.sourceforge.net/DTD/sodipodi-0.dtd"
   xmlns:inkscape="http://www.inkscape.org/namespaces/inkscape"
   inkscape:export-ydpi="90"
   inkscape:export-xdpi="90"
   inkscape:export-filename="E:\publikatr\docs\visual\logo-square-mini.png"
   sodipodi:docname="logo-square-mini.svg"
   inkscape:version="0.91 r13725"
   version="1.1"
   id="svg4414"
   viewBox="0 0 396.89497 396.89502"
   height="112.01259mm"
   width="112.01259mm">
  <defs
     id="defs4416" />
  <sodipodi:namedview
     inkscape:window-maximized="0"
     inkscape:window-y="140"
     inkscape:window-x="548"
     inkscape:window-height="1239"
     inkscape:window-width="2426"
     units="mm"
     fit-margin-bottom="24.932"
     fit-margin-right="24.932"
     fit-margin-left="24.932"
     fit-margin-top="24.932"
     showgrid="false"
     inkscape:current-layer="layer1"
     inkscape:document-units="px"
     inkscape:cy="-47.254841"
     inkscape:cx="341.13028"
     inkscape:zoom="0.70000001"
     inkscape:pageshadow="2"
     inkscape:pageopacity="0.0"
     borderopacity="1.0"
     bordercolor="#666666"
     pagecolor="#ffffff"
     id="base"
     showguides="true"
     inkscape:guide-bbox="true" />
  <metadata
     id="metadata4419">
    <rdf:RDF>
      <cc:Work
         rdf:about="">
        <dc:format>image/svg+xml</dc:format>
        <dc:type
           rdf:resource="http://purl.org/dc/dcmitype/StillImage" />
        <dc:title></dc:title>
      </cc:Work>
    </rdf:RDF>
  </metadata>
  <g
     inkscape:label="Ebene 1"
     inkscape:groupmode="layer"
     id="layer1"
     transform="translate(-103.56011,120.66202)">
    <g
       id="g5104"
       transform="matrix(3.9108606,0,0,3.9108606,-316.47252,-258.15444)">
      <path
         inkscape:connector-curvature="0"
         d="m 128.75487,117.78549 0,-49.64456 q 0,-1.96827 -0.0438,-4.19903 -0.0438,-2.27446 -0.0876,-4.24273 -0.0876,-2.27447 -0.13138,-4.89886 l 7.74193,0 0.5686,6.69219 q 1.44342,-2.14325 3.14928,-3.58666 1.70582,-1.44342 3.49915,-2.31819 1.83709,-0.8748 3.63042,-1.22472 1.79333,-0.34995 3.45544,-0.34995 3.5429,0 6.73589,1.44341 3.19303,1.44342 5.59869,4.33021 2.40569,2.88683 3.80535,7.26079 1.44341,4.374 1.44341,10.23509 0,5.90488 -1.48712,10.23513 -1.44342,4.3302 -3.98034,7.21703 -2.53687,2.84308 -5.90484,4.28649 -3.32421,1.39967 -7.0421,1.39967 -4.11155,0 -7.34826,-1.5746 -3.19303,-1.6184 -5.64244,-4.11156 l 0.21858,8.17932 0,14.87149 -8.17932,0 z m 19.77035,-23.70692 q 3.63042,0 5.90489,-1.5746 2.27442,-1.57464 3.5429,-4.02409 1.26844,-2.4494 1.70582,-5.46746 0.48114,-3.06176 0.48114,-5.99231 0,-3.45544 -0.56861,-6.47349 -0.5686,-3.06177 -1.88079,-5.29252 -1.3122,-2.23072 -3.45544,-3.49916 -2.14325,-1.31219 -5.29252,-1.31219 -2.40566,0 -4.59266,0.91852 -2.187,0.91853 -3.8491,2.31823 -1.61836,1.39966 -2.62439,3.10552 -0.96228,1.66207 -0.96228,3.23671 l 0,13.69052 q 0,1.74962 0.69988,3.58667 0.69983,1.83708 2.14324,3.36796 1.44338,1.48717 3.58662,2.44945 2.187,0.96224 5.1613,0.96224 z"
         id="path4264"
         style="font-style:normal;font-variant:normal;font-weight:normal;font-stretch:normal;font-size:medium;line-height:125%;font-family:Shanti;-inkscape-font-specification:Shanti;letter-spacing:0px;word-spacing:0px;fill:#1d2d44;fill-opacity:1;stroke:none;stroke-width:1px;stroke-linecap:butt;stroke-linejoin:miter;stroke-opacity:1" />
      <path
         id="path4284"
         transform="translate(103.56008,-120.66202)"
         d="m 75.962891,206.10156 0,24.07227 -32.345703,0 0,8.27344 32.345703,0 8.273437,0 0,-32.34571 -8.273437,0 z"
         style="font-style:normal;font-variant:normal;font-weight:normal;font-stretch:normal;font-size:medium;line-height:125%;font-family:Shanti;-inkscape-font-specification:Shanti;letter-spacing:0px;word-spacing:0px;fill:#1d2d44;fill-opacity:1;stroke:none;stroke-width:1px;stroke-linecap:butt;stroke-linejoin:miter;stroke-opacity:1"
         inkscape:connector-curvature="0" />
    </g>
  </g>
</svg>
